<svg width="512" height="317" xmlns="http://www.w3.org/2000/svg" class="svg-inline--fa fa-magnet fa-w-16">
 <g>
  <title>background</title>
  <rect x="-1" y="-1" width="514" height="319" id="canvas_background" fill="none"/>
 </g>

 <g>
  <title>Layer 1</title>
  <path fill="#273141" d="m301.74392,86.86344l-91.82257,0a7.24581,7.99852 0 0 1 -7.24581,-7.99851l0,-53.32352a21.73745,23.99557 0 0 1 21.73745,-23.99559l62.79705,0a21.73745,23.99557 0 0 1 21.73745,23.99559l0,53.32352a7.17939,7.92522 0 0 1 -7.20357,7.99851zm210.08638,-7.99851l0,-53.39019a21.73745,23.99557 0 0 0 -21.73745,-23.99557l-62.79705,0a21.73745,23.99557 0 0 0 -21.73745,23.99557l0,53.32353a7.24581,7.99852 0 0 0 7.2458,7.99854l91.78032,0a7.17939,7.92522 0 0 0 7.24583,-7.93188zm-99.02615,29.32791a7.24581,7.99852 0 0 0 -7.2458,7.99854l0,34.6603c0,85.38426 -96.61086,85.25095 -96.61086,0l0,-34.6603a7.24581,7.99852 0 0 0 -7.24581,-7.99854l-91.71994,0a7.24581,7.99852 0 0 0 -7.24584,8.06519c0.0604,14.26405 0.3623,26.86174 0,35.52682c0,100.38151 82.2219,164.36971 155.03027,164.36971s153.97353,-63.9882 153.97353,-164.43639c-0.36226,-8.53177 -0.12077,-21.99594 0,-35.46014a7.24581,7.99852 0 0 0 -7.2458,-8.06519l-91.68974,0l-0.00001,0z" id="svg_5" transform="rotate(-180 357.2529296875,158.81687927246094) " stroke="null"/>
  <path fill="#273141" d="m100.70128,86.86344l-91.82257,0a7.24581,7.99852 0 0 1 -7.24581,-7.99851l0,-53.32352a21.73745,23.99557 0 0 1 21.73745,-23.99559l62.79705,0a21.73745,23.99557 0 0 1 21.73745,23.99559l0,53.32352a7.17939,7.92522 0 0 1 -7.20357,7.99851zm210.08638,-7.99851l0,-53.39019a21.73745,23.99557 0 0 0 -21.73745,-23.99557l-62.79705,0a21.73745,23.99557 0 0 0 -21.73745,23.99557l0,53.32352a7.24581,7.99852 0 0 0 7.24581,7.99855l91.78031,0a7.17939,7.92522 0 0 0 7.24583,-7.93188zm-99.02614,29.32791a7.24581,7.99852 0 0 0 -7.24581,7.99854l0,34.6603c0,85.38426 -96.61086,85.25095 -96.61086,0l0,-34.6603a7.24581,7.99852 0 0 0 -7.2458,-7.99854l-91.71994,0a7.24581,7.99852 0 0 0 -7.24585,8.06519c0.0604,14.26405 0.3623,26.86174 0,35.52682c0,100.38151 82.2219,164.36971 155.03027,164.36971s153.97354,-63.9882 153.97354,-164.43639c-0.36227,-8.53177 -0.12078,-21.99594 0,-35.46014a7.24581,7.99852 0 0 0 -7.24581,-8.06519l-91.68974,0z" id="svg_6" transform="rotate(-180 156.2102813720703,158.81687927246094) " stroke="null"/>
 </g>
</svg>